
<svg width="201" height="48" viewBox="0 0 201 48" fill="none" xmlns="http://www.w3.org/2000/svg">
<rect width="201" height="48" fill="#F5F5F5"/>
<g clip-path="url(#clip0_4_74)">
<rect width="1440" height="3214" transform="translate(-813 -1246)" fill="white"/>
<rect x="-812.5" y="-52.5772" width="1438.9" height="151.989" rx="4.49969" stroke="#9747FF" stroke-width="0.99993" stroke-dasharray="10 5"/>
<g clip-path="url(#clip1_4_74)">
<path d="M0.942383 24.8394V2.43675C0.942383 2.1156 1.17786 1.88086 1.4983 1.88086H7.76209C11.9095 1.88086 14.9451 4.25347 14.9451 8.1015C14.9451 10.2819 13.7695 12.2484 11.7813 13.1254V13.2961C14.4749 13.916 15.9071 15.7968 15.9071 18.7261C15.9071 22.8513 12.8499 25.3953 8.44618 25.3953H1.4983C1.17786 25.3953 0.942383 25.1606 0.942383 24.8394ZM7.14208 11.5859C8.93801 11.5859 10.0282 10.4741 10.0282 8.69989C10.0282 6.88245 8.95924 5.81387 7.14208 5.81387H5.56038V11.5859H7.14208ZM8.06129 21.4623C9.83561 21.4623 10.9903 20.3289 10.9903 18.3408C10.9903 16.5025 9.9854 15.5189 8.06129 15.5189H5.56038V21.4623H8.06129Z" fill="white"/>
<path d="M32.0923 8.17553V24.8393C32.0923 25.1604 31.8572 25.3952 31.5364 25.3952H28.7147C28.3726 25.3952 28.1908 25.1813 28.1159 24.8393L27.6885 22.7446H27.5175C26.7477 24.7327 25.2514 25.7797 23.2419 25.7797C20.035 25.7797 18.0684 23.1507 18.0684 18.8541V8.17553C18.0684 7.85583 18.3035 7.62036 18.6243 7.62036H22.0448C22.3652 7.62036 22.6003 7.85583 22.6003 8.17553V18.5114C22.6003 20.5427 23.4129 21.6537 24.9522 21.6537C26.6624 21.6537 27.56 20.372 27.56 17.9137V8.17553C27.56 7.85583 27.7955 7.62036 28.1159 7.62036H31.5364C31.8572 7.62036 32.0923 7.85583 32.0923 8.17553Z" fill="white"/>
<path d="M34.0825 30.3115C33.8045 30.1193 33.7617 29.8838 33.9115 29.5634L35.0229 27.126C35.1727 26.8063 35.4291 26.7199 35.7499 26.9553C36.1348 27.2333 36.6262 27.4471 37.3319 27.4471C38.0265 27.4471 38.6306 27.1749 39.0422 26.5384L33.7617 8.24009C33.6548 7.85558 33.8474 7.62012 34.2319 7.62012H37.845C38.1871 7.62012 38.3685 7.79078 38.4434 8.11192L41.2226 20.4783H41.3937L44.1729 8.11192C44.2478 7.79077 44.4292 7.62012 44.7713 7.62012H48.3844C48.7689 7.62012 48.9615 7.85558 48.8546 8.24009L43.8092 26.2288C42.8954 29.4726 40.9447 31.3376 37.7809 31.3376C36.3699 31.3376 35.1086 31.0388 34.0825 30.3115Z" fill="white"/>
<path d="M58.4769 24.9034L54.5217 8.24034C54.4256 7.85583 54.6287 7.62036 55.0136 7.62036H58.6263C58.9683 7.62036 59.1714 7.81262 59.225 8.13377L61.2345 20.0725H61.4055L63.6501 8.11217C63.7142 7.79102 63.9496 7.62037 64.2701 7.62037H67.4342C67.7546 7.62037 67.9901 7.79103 68.0542 8.11217L70.32 20.0725H70.491L72.4792 8.13377C72.5328 7.81262 72.7359 7.62036 73.078 7.62036H76.7119C77.0968 7.62036 77.2999 7.85583 77.2038 8.24034L73.249 24.9034C73.1633 25.2454 72.971 25.3952 72.6502 25.3952H68.6742C68.3534 25.3952 68.1503 25.2454 68.0754 24.9034L65.9591 15.2091H65.788L63.6501 24.9034C63.5755 25.2454 63.3721 25.3952 63.0517 25.3952H59.0753C58.7548 25.3952 58.5622 25.2454 58.4769 24.9034Z" fill="white"/>
<path d="M81.2038 0.918945C82.6573 0.918945 83.8545 1.90255 83.8545 3.56951C83.8545 5.19469 82.6573 6.22007 81.2038 6.22007C79.7499 6.22007 78.5527 5.1947 78.5527 3.56951C78.5527 1.90256 79.7499 0.918945 81.2038 0.918945ZM78.9376 24.8395V8.17577C78.9376 7.85606 79.1727 7.62059 79.4935 7.62059H82.914C83.2345 7.62059 83.4699 7.85606 83.4699 8.17577V24.8395C83.4699 25.1607 83.2345 25.3954 82.914 25.3954H79.4935C79.1727 25.3954 78.9376 25.1607 78.9376 24.8395Z" fill="white"/>
<path d="M96.8741 25.0532C96.019 25.5235 94.9716 25.7798 93.7104 25.7798C90.3965 25.7798 88.1307 23.6851 88.1307 20.1791V11.2114H85.6506C85.3298 11.2114 85.0947 10.9767 85.0947 10.6555V8.56087C85.0947 8.28293 85.2445 8.06907 85.6506 8.00498L88.1307 7.62047L88.6009 3.9431C88.6488 3.58019 88.836 3.38721 89.1568 3.38721H92.1067C92.4275 3.38721 92.6626 3.62339 92.6626 3.9431V7.62047H96.2541C96.5749 7.62047 96.81 7.85593 96.81 8.17564V10.6555C96.81 10.9767 96.5749 11.2114 96.2541 11.2114H92.6626V19.4951C92.6626 21.1195 93.2614 21.8893 94.4369 21.8893C95.0141 21.8893 95.4847 21.7402 96.0619 21.3975C96.3823 21.2052 96.7139 21.2477 96.7888 21.6329L97.3231 24.4117C97.3764 24.668 97.3015 24.8178 96.8741 25.0532Z" fill="white"/>
<path d="M99.0137 24.8394V2.43675C99.0137 2.1156 99.2488 1.88086 99.5696 1.88086H102.947C103.268 1.88086 103.546 2.1156 103.546 2.43675V10.2603H103.717C104.444 8.28296 105.94 7.23527 107.95 7.23527C111.199 7.23527 113.209 9.90815 113.209 14.194V24.8394C113.209 25.1606 112.974 25.3953 112.653 25.3953H109.232C108.912 25.3953 108.677 25.1606 108.677 24.8394V14.536C108.677 12.5162 107.822 11.3828 106.24 11.3828C104.486 11.3828 103.546 12.6869 103.546 15.1344V24.8394C103.546 25.1606 103.311 25.3953 102.99 25.3953H99.5696C99.2488 25.3953 99.0137 25.1606 99.0137 24.8394Z" fill="white"/>
<path d="M122.123 30.3974V8.17551C122.123 7.85581 122.358 7.62034 122.679 7.62034H125.501C125.821 7.62034 126.025 7.791 126.099 8.17551L126.527 10.2709H126.698C127.468 8.43258 129.242 7.23511 131.187 7.23511C134.864 7.23511 137.301 10.9334 137.301 16.5023C137.301 22.0814 134.864 25.7797 131.187 25.7797C129.285 25.7797 127.874 24.8609 126.826 22.8728H126.655V30.3974C126.655 30.7179 126.42 30.9533 126.099 30.9533H122.679C122.358 30.9533 122.123 30.7179 122.123 30.3974ZM129.605 21.9964C131.529 21.9964 132.598 20.0292 132.598 16.5023C132.598 12.9855 131.529 11.0191 129.605 11.0191C127.66 11.0191 126.57 13.0072 126.57 16.5023C126.57 20.0083 127.66 21.9964 129.605 21.9964Z" fill="white"/>
<path d="M149.318 12.0451C148.548 11.7031 147.864 11.4043 147.009 11.4043C145.256 11.4043 144.316 12.7292 144.316 15.1875V24.8393C144.316 25.1604 144.08 25.3952 143.76 25.3952H140.339C140.018 25.3952 139.783 25.1604 139.783 24.8393V8.17552C139.783 7.85581 140.018 7.62035 140.339 7.62035H143.161C143.503 7.62035 143.685 7.83421 143.76 8.17552L144.187 10.2709H144.358C145.128 8.32529 146.624 7.27832 148.591 7.27832C149.403 7.27832 150.087 7.44969 150.643 7.70604C150.943 7.8767 151.007 8.07976 150.9 8.51827L150.087 11.7888C150.002 12.1308 149.703 12.2165 149.318 12.0451Z" fill="white"/>
<path d="M154.793 0.918945C156.246 0.918945 157.443 1.90255 157.443 3.56951C157.443 5.19469 156.246 6.22007 154.793 6.22007C153.339 6.22007 152.142 5.1947 152.142 3.56951C152.142 1.90256 153.339 0.918945 154.793 0.918945ZM152.526 24.8395V8.17577C152.526 7.85606 152.762 7.62059 153.082 7.62059H156.503C156.823 7.62059 157.059 7.85606 157.059 8.17577V24.8395C157.059 25.1607 156.823 25.3954 156.503 25.3954H153.082C152.762 25.3954 152.526 25.1607 152.526 24.8395Z" fill="white"/>
<path d="M168.966 7.23511C171.082 7.23511 172.643 8.41601 173.455 10.4423H173.626C174.888 8.28784 176.427 7.23511 178.372 7.23511C181.579 7.23511 183.525 9.92887 183.525 14.2687V24.8393C183.525 25.1604 183.29 25.3952 182.969 25.3952H179.548C179.227 25.3952 178.992 25.1604 178.992 24.8393V14.61C178.992 12.5369 178.18 11.3827 176.662 11.3827C174.995 11.3827 174.118 12.7292 174.118 15.2091V24.8393C174.118 25.1604 173.883 25.3952 173.562 25.3952H170.142C169.821 25.3952 169.586 25.1604 169.586 24.8393V14.61C169.586 12.5369 168.774 11.3827 167.256 11.3827C165.588 11.3827 164.712 12.7292 164.712 15.2091V24.8393C164.712 25.1604 164.477 25.3952 164.156 25.3952H160.736C160.415 25.3952 160.18 25.1604 160.18 24.8393V8.17551C160.18 7.85581 160.415 7.62034 160.736 7.62034H163.557C163.878 7.62034 164.087 7.8342 164.156 8.17551L164.583 10.2709H164.754C165.524 8.32529 166.999 7.23511 168.966 7.23511Z" fill="white"/>
<path d="M193.553 7.23487C197.914 7.23487 200.929 11.0188 200.929 16.3739V17.2719C200.929 17.6139 200.694 17.827 200.373 17.827H190.566C190.78 20.7347 191.757 22.2093 193.553 22.2093C194.879 22.2093 195.905 21.5901 196.29 19.944C196.375 19.5804 196.589 19.4414 196.931 19.5163L200.095 20.222C200.458 20.3019 200.608 20.5424 200.48 20.906C199.389 24.07 196.91 25.7794 193.553 25.7794C188.979 25.7794 185.814 22.0812 185.814 16.6303C185.814 11.1895 189.021 7.23487 193.553 7.23487ZM196.311 14.8344C196.044 12.2004 195.14 10.805 193.553 10.805C192.02 10.805 190.929 12.2379 190.614 14.8344H196.311Z" fill="white"/>
<path d="M132.133 32.4362C132.56 32.094 133.181 32.3079 134.271 33.1847C142.27 39.643 152.834 42.0809 162.693 42.0809C171.419 42.0809 179.631 40.1562 184.978 37.3548C185.876 36.8843 186.625 36.4994 187.116 37.0126C187.266 37.1837 187.373 37.3762 187.373 37.59C187.373 38.1246 186.838 38.8303 185.855 39.7071C180.102 44.6899 171.055 47.5127 161.688 47.5127C150.995 47.5127 139.896 43.7917 133.01 35.2804C132.453 34.5961 132.111 34.0187 131.94 33.5482C131.748 32.928 131.919 32.5859 132.133 32.4362Z" fill="white"/>
<path d="M183.437 32.5851C185.105 31.7083 186.966 31.2378 188.848 31.2378C190.665 31.2378 193.018 31.7938 193.638 32.6706C194.258 33.5902 193.959 36.0067 193.36 37.6961C192.761 39.4711 191.649 41.0536 190.238 42.2939C189.596 42.8927 188.89 43.4273 188.356 43.4273C188.163 43.4273 188.035 43.3632 187.907 43.2348C187.458 42.8071 187.671 42.2297 188.206 41.3316C189.682 39.0006 190.901 35.8142 190.345 34.9802C189.767 34.189 186.345 34.2317 183.651 34.8091C182.646 35.0016 182.004 35.0016 181.769 34.4883C181.448 33.7826 182.41 33.1411 183.437 32.5851Z" fill="white"/>
</g>
</g>
<defs>
<clipPath id="clip0_4_74">
<rect width="1440" height="3214" fill="white" transform="translate(-813 -1246)"/>
</clipPath>
<clipPath id="clip1_4_74">
<rect width="199.986" height="46.5936" fill="white" transform="translate(0.943359 0.918945)"/>
</clipPath>
</defs>
</svg>
